<svg xmlns="http://www.w3.org/2000/svg" fill="none" viewBox="0 0 106.71 115.64">
    <path d="M105.88 99.41a21.36 21.36 0 0 0-3.39-4.15 47.47 47.47 0 0 1-8.43-12.65c-1.7-3.73-2.92-7.83-2.37-11.89a5.93 5.93 0 0 1 .91-2.68 10.75 10.75 0 0 1 2.32-2c3.25-2.54 6.24-8.92 4.66-13.13-4.28-11.48-3.81-33.59-3.81-33.59-.64-11.61-14.48 5.41-14.48 5.41-6.52-.16-15.75-1-15.75-1-18.45-24.29-18.76 3.71-18.76 3.71-.67 4.16-.85 11.47-3.47 15.05-3.22 4.39-3.74-4.69-4.11-7.2a86 86 0 0 0-12.5-33.4A3.88 3.88 0 0 0 24.18.01a1.18 1.18 0 0 0-.94.38 2.33 2.33 0 0 0-.48 1.51c-.54 9.18 8.28 21.36 4 30.16-3.66 7.48-3 13-3 13 .1.87-6.18 6-7.07 7.07a47.13 47.13 0 0 0-4.88 6.68c-2.79 4.7-4.7 10.12-3.6 15.64a6.49 6.49 0 0 1 .15 1.59 5.49 5.49 0 0 1-.5 1.8 176.86 176.86 0 0 0-7.7 21.48 2.64 2.64 0 0 0-.11 1.32 2.46 2.46 0 0 0 .58 1 15 15 0 0 0 3 2.63 5 5 0 0 0 3 1 4.29 4.29 0 0 0 3.31-2.57 21.68 21.68 0 0 0 1.24-4.2c.67-2.57 6.69-13.25 8.74-14.36 4-2.17 7.26 1.64 11.24 1.64 7.57 0 8 10 8 15.44 0 2.63-1.39 6.26-1 8.69.61 4.26 5.71 6.87 9.36 5.15 1.2-.56 2.13-1.95 3.21-2.5 2-1 4.18.19 5.46-2.91.42-1 .16-14.23-.25-14.22a72.68 72.68 0 0 0 14-1.37c2.5-.51 4.9-1.62 7.37-2.11 3.09-.61 5.74 2.76 8 4.55l8.82 6.86a16 16 0 0 0 6 3.4c2.26.52 5-.2 6.06-2.25a5.57 5.57 0 0 0-.31-5.1ZM69.91 53.32c-2.41.16-3.48-1.73-3.66-3.86l-.33-3.9c-.12-1.45-.21-3 .61-4.22a3.34 3.34 0 0 1 5.61.39 7.72 7.72 0 0 1 .73 3.19c.2 2.84 1.22 8.13-2.96 8.4Zm18.35-1.23a2.77 2.77 0 0 1-2.48-1 7 7 0 0 1-1.42-4.28 35.67 35.67 0 0 1-.06-4.49 5.53 5.53 0 0 1 .37-2c1.12-2.5 4.76-1.81 5.85.33a8.83 8.83 0 0 1 .73 3.25c.25 2.74.82 7.65-2.99 8.19Z" />
    <style>
        path { fill: #000; }
        @media (prefers-color-scheme: dark) {
            path { fill: #FFF; }
        }
    </style>
</svg>
